<svg xmlns="http://www.w3.org/2000/svg" width="18.99" height="15.423" viewBox="0 0 18.99 15.423"><defs><style>.a{fill:#26093a;}</style></defs><path class="a" d="M17.038,7.225c.012.169.012.337.012.506A11,11,0,0,1,5.977,18.8,11,11,0,0,1,0,17.057a8.051,8.051,0,0,0,.94.048,7.8,7.8,0,0,0,4.832-1.663,3.9,3.9,0,0,1-3.639-2.7,4.908,4.908,0,0,0,.735.06,4.116,4.116,0,0,0,1.024-.133A3.893,3.893,0,0,1,.771,8.851V8.8A3.92,3.92,0,0,0,2.53,9.3a3.9,3.9,0,0,1-1.2-5.205A11.063,11.063,0,0,0,9.35,8.164a4.394,4.394,0,0,1-.1-.892A3.9,3.9,0,0,1,15.99,4.61a7.663,7.663,0,0,0,2.47-.94,3.881,3.881,0,0,1-1.711,2.145,7.8,7.8,0,0,0,2.241-.6,8.366,8.366,0,0,1-1.952,2.012Z" transform="translate(0 -3.381)"/></svg>