<svg xmlns="http://www.w3.org/2000/svg" width="17.423" height="17.423" viewBox="0 0 17.423 17.423"><defs><style>.a{fill:#26093a;}</style></defs><path class="a" d="M8.712.563a8.712,8.712,0,1,0,8.712,8.712A8.71,8.71,0,0,0,8.712.563ZM12.99,6.531l-1.43,6.737c-.105.478-.39.594-.787.369L8.6,12.032l-1.05,1.012a.55.55,0,0,1-.439.214l.155-2.217L11.3,7.395c.176-.155-.039-.242-.27-.088l-4.988,3.14-2.15-.671c-.467-.148-.478-.467.1-.692l8.4-3.239c.39-.141.731.095.6.685Z" transform="translate(0 -0.563)"/></svg>